<svg xmlns="http://www.w3.org/2000/svg" xmlns:xlink="http://www.w3.org/1999/xlink" width="500" zoomAndPan="magnify" viewBox="0 0 375 374.999991" height="500" preserveAspectRatio="xMidYMid meet" version="1.0"><defs><clipPath id="52585d2309"><path d="M 19 32 L 125 32 L 125 375 L 19 375 Z M 19 32 " clip-rule="nonzero"/></clipPath><clipPath id="3665922eed"><path d="M 46.421875 31.496094 L 125.832031 38.121094 L 97.660156 375.933594 L 18.246094 369.308594 Z M 46.421875 31.496094 " clip-rule="nonzero"/></clipPath><clipPath id="717277bbd5"><path d="M 62.863281 32.867188 L 109.390625 36.75 C 113.75 37.113281 117.789062 39.195312 120.617188 42.535156 C 123.441406 45.875 124.824219 50.203125 124.460938 54.5625 L 99.050781 359.238281 C 98.6875 363.601562 96.605469 367.636719 93.265625 370.464844 C 89.925781 373.289062 85.597656 374.675781 81.238281 374.3125 L 34.710938 370.429688 C 30.347656 370.066406 26.3125 367.984375 23.484375 364.644531 C 20.660156 361.304688 19.273438 356.976562 19.640625 352.617188 L 45.050781 47.941406 C 45.414062 43.578125 47.496094 39.542969 50.835938 36.714844 C 54.175781 33.886719 58.503906 32.503906 62.863281 32.867188 Z M 62.863281 32.867188 " clip-rule="nonzero"/></clipPath><clipPath id="c24d5f8496"><path d="M 0.199219 0.398438 L 106 0.398438 L 106 342.878906 L 0.199219 342.878906 Z M 0.199219 0.398438 " clip-rule="nonzero"/></clipPath><clipPath id="f9050ca1ac"><path d="M 27.421875 -0.503906 L 106.832031 6.121094 L 78.660156 343.933594 L -0.753906 337.308594 Z M 27.421875 -0.503906 " clip-rule="nonzero"/></clipPath><clipPath id="b01ec4422e"><path d="M 43.863281 0.867188 L 90.390625 4.75 C 94.75 5.113281 98.789062 7.195312 101.617188 10.535156 C 104.441406 13.875 105.824219 18.203125 105.460938 22.5625 L 80.050781 327.238281 C 79.6875 331.601562 77.605469 335.636719 74.265625 338.464844 C 70.925781 341.289062 66.597656 342.675781 62.238281 342.3125 L 15.710938 338.429688 C 11.347656 338.066406 7.3125 335.984375 4.484375 332.644531 C 1.660156 329.304688 0.273438 324.976562 0.640625 320.617188 L 26.050781 15.941406 C 26.414062 11.578125 28.496094 7.542969 31.835938 4.714844 C 35.175781 1.886719 39.503906 0.503906 43.863281 0.867188 Z M 43.863281 0.867188 " clip-rule="nonzero"/></clipPath><clipPath id="e3c2c9588c"><rect x="0" width="106" y="0" height="343"/></clipPath><clipPath id="76da959ce8"><path d="M 0 0 L 296 0 L 296 76 L 0 76 Z M 0 0 " clip-rule="nonzero"/></clipPath><clipPath id="7d9302f039"><path d="M 3.425781 76.578125 L 0 15.050781 L 292.96875 -1.265625 L 296.394531 60.261719 Z M 3.425781 76.578125 " clip-rule="nonzero"/></clipPath><clipPath id="5159bb3ab3"><path d="M 2.507812 60.101562 L 0.917969 31.527344 C 0.671875 27.15625 2.175781 22.871094 5.09375 19.609375 C 8.011719 16.347656 12.105469 14.378906 16.472656 14.132812 L 276.371094 -0.339844 C 280.742188 -0.585938 285.027344 0.917969 288.289062 3.835938 C 291.550781 6.753906 293.519531 10.847656 293.761719 15.214844 L 295.355469 43.792969 C 295.597656 48.164062 294.097656 52.449219 291.179688 55.710938 C 288.261719 58.972656 284.167969 60.941406 279.796875 61.183594 L 19.902344 75.660156 C 15.53125 75.902344 11.246094 74.402344 7.984375 71.484375 C 4.722656 68.566406 2.753906 64.472656 2.507812 60.101562 Z M 2.507812 60.101562 " clip-rule="nonzero"/></clipPath><clipPath id="6c0dab327c"><path d="M 0.480469 0 L 295.679688 0 L 295.679688 76 L 0.480469 76 Z M 0.480469 0 " clip-rule="nonzero"/></clipPath><clipPath id="7141d42154"><path d="M 3.425781 76.578125 L 0 15.050781 L 292.96875 -1.265625 L 296.394531 60.261719 Z M 3.425781 76.578125 " clip-rule="nonzero"/></clipPath><clipPath id="2f49f8775b"><path d="M 2.507812 60.101562 L 0.917969 31.527344 C 0.671875 27.15625 2.175781 22.871094 5.09375 19.609375 C 8.011719 16.347656 12.105469 14.378906 16.472656 14.132812 L 276.371094 -0.339844 C 280.742188 -0.585938 285.027344 0.917969 288.289062 3.835938 C 291.550781 6.753906 293.519531 10.847656 293.761719 15.214844 L 295.355469 43.792969 C 295.597656 48.164062 294.097656 52.449219 291.179688 55.710938 C 288.261719 58.972656 284.167969 60.941406 279.796875 61.183594 L 19.902344 75.660156 C 15.53125 75.902344 11.246094 74.402344 7.984375 71.484375 C 4.722656 68.566406 2.753906 64.472656 2.507812 60.101562 Z M 2.507812 60.101562 " clip-rule="nonzero"/></clipPath><clipPath id="ccb28b2875"><rect x="0" width="296" y="0" height="76"/></clipPath><clipPath id="ce77713d29"><path d="M 1 181 L 223 181 L 223 255 L 1 255 Z M 1 181 " clip-rule="nonzero"/></clipPath><clipPath id="1439e22c98"><path d="M 4.089844 254.9375 L 1.070312 191.355469 L 219.882812 180.96875 L 222.902344 244.550781 Z M 4.089844 254.9375 " clip-rule="nonzero"/></clipPath><clipPath id="9a7953d8c2"><path d="M 3.308594 238.457031 L 1.851562 207.835938 C 1.644531 203.464844 3.183594 199.191406 6.128906 195.953125 C 9.070312 192.71875 13.179688 190.78125 17.550781 190.574219 L 203.386719 181.753906 C 207.757812 181.546875 212.03125 183.082031 215.269531 186.027344 C 218.507812 188.972656 220.441406 193.082031 220.652344 197.453125 L 222.105469 228.070312 C 222.3125 232.441406 220.773438 236.71875 217.828125 239.953125 C 214.886719 243.191406 210.777344 245.128906 206.40625 245.335938 L 20.570312 254.15625 C 16.199219 254.363281 11.925781 252.824219 8.6875 249.882812 C 5.449219 246.9375 3.515625 242.828125 3.308594 238.457031 Z M 3.308594 238.457031 " clip-rule="nonzero"/></clipPath><clipPath id="7feb0078de"><path d="M 0.441406 0.441406 L 221.480469 0.441406 L 221.480469 73.398438 L 0.441406 73.398438 Z M 0.441406 0.441406 " clip-rule="nonzero"/></clipPath><clipPath id="148af2cab9"><path d="M 3.089844 73.9375 L 0.0703125 10.355469 L 218.882812 -0.03125 L 221.902344 63.550781 Z M 3.089844 73.9375 " clip-rule="nonzero"/></clipPath><clipPath id="dcc7a0b05e"><path d="M 2.308594 57.457031 L 0.851562 26.835938 C 0.644531 22.464844 2.183594 18.191406 5.128906 14.953125 C 8.070312 11.71875 12.179688 9.78125 16.550781 9.574219 L 202.386719 0.753906 C 206.757812 0.546875 211.03125 2.082031 214.269531 5.027344 C 217.507812 7.972656 219.441406 12.082031 219.652344 16.453125 L 221.105469 47.070312 C 221.3125 51.441406 219.773438 55.71875 216.828125 58.953125 C 213.886719 62.191406 209.777344 64.128906 205.40625 64.335938 L 19.570312 73.15625 C 15.199219 73.363281 10.925781 71.824219 7.6875 68.882812 C 4.449219 65.9375 2.515625 61.828125 2.308594 57.457031 Z M 2.308594 57.457031 " clip-rule="nonzero"/></clipPath><clipPath id="dfebce298c"><rect x="0" width="222" y="0" height="74"/></clipPath><clipPath id="5a7ca0f61f"><path d="M 214 271 L 375 271 L 375 315 L 214 315 Z M 214 271 " clip-rule="nonzero"/></clipPath><clipPath id="4fde03cec0"><path d="M 216.070312 314.945312 L 213.96875 280.609375 L 372.90625 270.886719 L 375.007812 305.222656 Z M 216.070312 314.945312 " clip-rule="nonzero"/></clipPath><clipPath id="d61648f4ea"><path d="M 215.566406 306.707031 L 214.472656 288.84375 C 214.339844 286.660156 215.078125 284.511719 216.53125 282.871094 C 217.980469 281.234375 220.019531 280.238281 222.203125 280.105469 L 364.664062 271.390625 C 366.847656 271.257812 368.996094 271.996094 370.632812 273.445312 C 372.273438 274.894531 373.269531 276.9375 373.402344 279.121094 L 374.496094 296.988281 C 374.628906 299.171875 373.890625 301.320312 372.4375 302.957031 C 370.988281 304.597656 368.949219 305.59375 366.761719 305.726562 L 224.304688 314.441406 C 222.121094 314.574219 219.972656 313.832031 218.335938 312.382812 C 216.695312 310.933594 215.699219 308.894531 215.566406 306.707031 Z M 215.566406 306.707031 " clip-rule="nonzero"/></clipPath><clipPath id="72deb5c384"><path d="M 0.320312 0.199219 L 160.640625 0.199219 L 160.640625 43.640625 L 0.320312 43.640625 Z M 0.320312 0.199219 " clip-rule="nonzero"/></clipPath><clipPath id="d0778d7f84"><path d="M 2.070312 43.945312 L -0.03125 9.609375 L 158.90625 -0.113281 L 161.007812 34.222656 Z M 2.070312 43.945312 " clip-rule="nonzero"/></clipPath><clipPath id="66bcbc221f"><path d="M 1.566406 35.707031 L 0.472656 17.84375 C 0.339844 15.660156 1.078125 13.511719 2.53125 11.871094 C 3.980469 10.234375 6.019531 9.238281 8.203125 9.105469 L 150.664062 0.390625 C 152.847656 0.257812 154.996094 0.996094 156.632812 2.445312 C 158.273438 3.894531 159.269531 5.9375 159.402344 8.121094 L 160.496094 25.988281 C 160.628906 28.171875 159.890625 30.320312 158.4375 31.957031 C 156.988281 33.597656 154.949219 34.59375 152.761719 34.726562 L 10.304688 43.441406 C 8.121094 43.574219 5.972656 42.832031 4.335938 41.382812 C 2.695312 39.933594 1.699219 37.894531 1.566406 35.707031 Z M 1.566406 35.707031 " clip-rule="nonzero"/></clipPath><clipPath id="8999147a40"><rect x="0" width="161" y="0" height="44"/></clipPath><clipPath id="ef14eafc5d"><path d="M 269 225 L 320 225 L 320 360 L 269 360 Z M 269 225 " clip-rule="nonzero"/></clipPath><clipPath id="e779ab0fb8"><path d="M 277.785156 225.425781 L 320.207031 228.324219 L 311.175781 360.5625 L 268.753906 357.664062 Z M 277.785156 225.425781 " clip-rule="nonzero"/></clipPath><clipPath id="b3a38cd3f4"><path d="M 286.015625 225.988281 L 311.976562 227.761719 C 314.160156 227.910156 316.195312 228.917969 317.632812 230.570312 C 319.070312 232.21875 319.796875 234.371094 319.644531 236.554688 L 311.746094 352.183594 C 311.597656 354.363281 310.589844 356.398438 308.941406 357.835938 C 307.289062 359.277344 305.136719 360 302.953125 359.851562 L 276.992188 358.078125 C 274.808594 357.929688 272.777344 356.917969 271.339844 355.269531 C 269.898438 353.621094 269.175781 351.46875 269.324219 349.285156 L 277.222656 233.65625 C 277.371094 231.472656 278.382812 229.4375 280.03125 228 C 281.679688 226.5625 283.832031 225.835938 286.015625 225.988281 Z M 286.015625 225.988281 " clip-rule="nonzero"/></clipPath><clipPath id="62b34f3a4e"><path d="M 0.0390625 0.601562 L 50.921875 0.601562 L 50.921875 135 L 0.0390625 135 Z M 0.0390625 0.601562 " clip-rule="nonzero"/></clipPath><clipPath id="2ca76259f0"><path d="M 8.785156 0.425781 L 51.207031 3.324219 L 42.175781 135.5625 L -0.246094 132.664062 Z M 8.785156 0.425781 " clip-rule="nonzero"/></clipPath><clipPath id="d1f9643de8"><path d="M 17.015625 0.988281 L 42.976562 2.761719 C 45.160156 2.910156 47.195312 3.917969 48.632812 5.570312 C 50.070312 7.21875 50.796875 9.371094 50.644531 11.554688 L 42.746094 127.183594 C 42.597656 129.363281 41.589844 131.398438 39.941406 132.835938 C 38.289062 134.277344 36.136719 135 33.953125 134.851562 L 7.992188 133.078125 C 5.808594 132.929688 3.777344 131.917969 2.339844 130.269531 C 0.898438 128.621094 0.175781 126.46875 0.324219 124.285156 L 8.222656 8.65625 C 8.371094 6.472656 9.382812 4.4375 11.03125 3 C 12.679688 1.5625 14.832031 0.835938 17.015625 0.988281 Z M 17.015625 0.988281 " clip-rule="nonzero"/></clipPath><clipPath id="2a512be169"><rect x="0" width="51" y="0" height="135"/></clipPath></defs><g clip-path="url(#52585d2309)"><g clip-path="url(#3665922eed)"><g clip-path="url(#717277bbd5)"><g transform="matrix(1, 0, 0, 1, 19, 32)"><g clip-path="url(#e3c2c9588c)"><g clip-path="url(#c24d5f8496)"><g clip-path="url(#f9050ca1ac)"><g clip-path="url(#b01ec4422e)"><path fill="#0a1773" d="M 27.421875 -0.503906 L 106.832031 6.121094 L 78.683594 343.621094 L -0.726562 337 Z M 27.421875 -0.503906 " fill-opacity="1" fill-rule="nonzero"/></g></g></g></g></g></g></g></g><g clip-path="url(#76da959ce8)"><g clip-path="url(#7d9302f039)"><g clip-path="url(#5159bb3ab3)"><g transform="matrix(1, 0, 0, 1, 0.000000000000000056, 0)"><g clip-path="url(#ccb28b2875)"><g clip-path="url(#6c0dab327c)"><g clip-path="url(#7141d42154)"><g clip-path="url(#2f49f8775b)"><path fill="#0a1773" d="M 3.425781 76.578125 L 0 15.050781 L 292.726562 -1.25 L 296.15625 60.273438 Z M 3.425781 76.578125 " fill-opacity="1" fill-rule="nonzero"/></g></g></g></g></g></g></g></g><g clip-path="url(#ce77713d29)"><g clip-path="url(#1439e22c98)"><g clip-path="url(#9a7953d8c2)"><g transform="matrix(1, 0, 0, 1, 1, 181)"><g clip-path="url(#dfebce298c)"><g clip-path="url(#7feb0078de)"><g clip-path="url(#148af2cab9)"><g clip-path="url(#dcc7a0b05e)"><path fill="#0a1773" d="M 3.089844 73.9375 L 0.0703125 10.355469 L 218.882812 -0.03125 L 221.902344 63.550781 Z M 3.089844 73.9375 " fill-opacity="1" fill-rule="nonzero"/></g></g></g></g></g></g></g></g><g clip-path="url(#5a7ca0f61f)"><g clip-path="url(#4fde03cec0)"><g clip-path="url(#d61648f4ea)"><g transform="matrix(1, 0, 0, 1, 214, 271)"><g clip-path="url(#8999147a40)"><g clip-path="url(#72deb5c384)"><g clip-path="url(#d0778d7f84)"><g clip-path="url(#66bcbc221f)"><path fill="#03d56a" d="M 2.070312 43.945312 L -0.03125 9.609375 L 158.90625 -0.113281 L 161.007812 34.222656 Z M 2.070312 43.945312 " fill-opacity="1" fill-rule="nonzero"/></g></g></g></g></g></g></g></g><g clip-path="url(#ef14eafc5d)"><g clip-path="url(#e779ab0fb8)"><g clip-path="url(#b3a38cd3f4)"><g transform="matrix(1, 0, 0, 1, 269, 225)"><g clip-path="url(#2a512be169)"><g clip-path="url(#62b34f3a4e)"><g clip-path="url(#2ca76259f0)"><g clip-path="url(#d1f9643de8)"><path fill="#03d56a" d="M 8.785156 0.425781 L 51.207031 3.324219 L 42.1875 135.398438 L -0.234375 132.5 Z M 8.785156 0.425781 " fill-opacity="1" fill-rule="nonzero"/></g></g></g></g></g></g></g></g></svg>