<svg xmlns="http://www.w3.org/2000/svg" xmlns:xlink="http://www.w3.org/1999/xlink" width="300" zoomAndPan="magnify" viewBox="0 0 224.87999 74.999997" height="100" preserveAspectRatio="xMidYMid meet" version="1.0"><defs><g/><clipPath id="fcc13808da"><path d="M 0 0.0195312 L 51 0.0195312 L 51 74.980469 L 0 74.980469 Z M 0 0.0195312 " clip-rule="nonzero"/></clipPath><clipPath id="58f963ec64"><path d="M 3 6 L 21 6 L 21 74.980469 L 3 74.980469 Z M 3 6 " clip-rule="nonzero"/></clipPath><clipPath id="270a7a28c1"><path d="M 8.722656 6.453125 L 21.328125 7.503906 L 15.699219 75.003906 L 3.09375 73.953125 Z M 8.722656 6.453125 " clip-rule="nonzero"/></clipPath><clipPath id="d61d94d570"><path d="M 15.027344 6.976562 C 16.699219 7.117188 18.246094 7.914062 19.328125 9.195312 C 20.410156 10.476562 20.941406 12.132812 20.800781 13.804688 L 16.226562 68.679688 C 16.085938 70.347656 15.289062 71.898438 14.007812 72.980469 C 12.726562 74.0625 11.070312 74.59375 9.398438 74.453125 C 7.726562 74.316406 6.179688 73.515625 5.097656 72.238281 C 4.011719 70.957031 3.480469 69.296875 3.621094 67.625 L 8.199219 12.753906 C 8.335938 11.082031 9.136719 9.535156 10.414062 8.453125 C 11.695312 7.367188 13.355469 6.839844 15.027344 6.976562 Z M 15.027344 6.976562 " clip-rule="nonzero"/></clipPath><clipPath id="ab2a6c911f"><path d="M 0.359375 0.738281 L 18 0.738281 L 18 68.621094 L 0.359375 68.621094 Z M 0.359375 0.738281 " clip-rule="nonzero"/></clipPath><clipPath id="9b266d39f6"><path d="M 5.722656 0.453125 L 18.328125 1.503906 L 12.699219 69.003906 L 0.09375 67.953125 Z M 5.722656 0.453125 " clip-rule="nonzero"/></clipPath><clipPath id="fcf76cfd31"><path d="M 12.027344 0.976562 C 13.699219 1.117188 15.246094 1.914062 16.328125 3.195312 C 17.410156 4.476562 17.941406 6.132812 17.800781 7.804688 L 13.226562 62.679688 C 13.085938 64.347656 12.289062 65.898438 11.007812 66.980469 C 9.726562 68.0625 8.070312 68.59375 6.398438 68.453125 C 4.726562 68.316406 3.179688 67.515625 2.097656 66.238281 C 1.011719 64.957031 0.480469 63.296875 0.621094 61.625 L 5.199219 6.753906 C 5.335938 5.082031 6.136719 3.535156 7.414062 2.453125 C 8.695312 1.367188 10.355469 0.839844 12.027344 0.976562 Z M 12.027344 0.976562 " clip-rule="nonzero"/></clipPath><clipPath id="e3fbc38717"><rect x="0" width="18" y="0" height="69"/></clipPath><clipPath id="5812afea39"><path d="M 0 0.0195312 L 50 0.0195312 L 50 15 L 0 15 Z M 0 0.0195312 " clip-rule="nonzero"/></clipPath><clipPath id="e550cc1a3d"><path d="M 0.683594 15.074219 L -0.00390625 2.777344 L 49.578125 0.015625 L 50.261719 12.3125 Z M 0.683594 15.074219 " clip-rule="nonzero"/></clipPath><clipPath id="d36167db86"><path d="M 0.339844 8.925781 C 0.25 7.292969 0.808594 5.695312 1.898438 4.476562 C 2.988281 3.257812 4.515625 2.523438 6.148438 2.433594 L 43.378906 0.359375 C 45.011719 0.269531 46.609375 0.828125 47.828125 1.917969 C 49.046875 3.007812 49.78125 4.535156 49.871094 6.167969 C 49.960938 7.796875 49.402344 9.398438 48.3125 10.613281 C 47.222656 11.832031 45.695312 12.566406 44.066406 12.65625 L 6.832031 14.730469 C 5.199219 14.824219 3.601562 14.261719 2.382812 13.171875 C 1.164062 12.082031 0.429688 10.554688 0.339844 8.925781 Z M 0.339844 8.925781 " clip-rule="nonzero"/></clipPath><clipPath id="31786752fd"><path d="M 0.238281 0.261719 L 50 0.261719 L 50 14.890625 L 0.238281 14.890625 Z M 0.238281 0.261719 " clip-rule="nonzero"/></clipPath><clipPath id="aeb6aacd1a"><path d="M 0.683594 15.074219 L -0.00390625 2.777344 L 49.578125 0.015625 L 50.261719 12.3125 Z M 0.683594 15.074219 " clip-rule="nonzero"/></clipPath><clipPath id="34354b45f0"><path d="M 0.339844 8.925781 C 0.25 7.292969 0.808594 5.695312 1.898438 4.476562 C 2.988281 3.257812 4.515625 2.523438 6.148438 2.433594 L 43.378906 0.359375 C 45.011719 0.269531 46.609375 0.828125 47.828125 1.917969 C 49.046875 3.007812 49.78125 4.535156 49.871094 6.167969 C 49.960938 7.796875 49.402344 9.398438 48.3125 10.613281 C 47.222656 11.832031 45.695312 12.566406 44.066406 12.65625 L 6.832031 14.730469 C 5.199219 14.824219 3.601562 14.261719 2.382812 13.171875 C 1.164062 12.082031 0.429688 10.554688 0.339844 8.925781 Z M 0.339844 8.925781 " clip-rule="nonzero"/></clipPath><clipPath id="b5dbc3b12b"><rect x="0" width="50" y="0" height="15"/></clipPath><clipPath id="5731b0398b"><path d="M 0 36 L 38 36 L 38 51 L 0 51 Z M 0 36 " clip-rule="nonzero"/></clipPath><clipPath id="e48f2e3715"><path d="M 0.785156 50.820312 L 0.179688 38.109375 L 37.21875 36.351562 L 37.820312 49.058594 Z M 0.785156 50.820312 " clip-rule="nonzero"/></clipPath><clipPath id="6ca2910c11"><path d="M 0.480469 44.464844 C 0.402344 42.777344 0.996094 41.128906 2.128906 39.882812 C 3.265625 38.632812 4.851562 37.886719 6.535156 37.808594 L 30.820312 36.65625 C 32.503906 36.574219 34.152344 37.167969 35.402344 38.300781 C 36.648438 39.4375 37.394531 41.023438 37.476562 42.707031 C 37.554688 44.394531 36.960938 46.042969 35.828125 47.289062 C 34.691406 48.539062 33.109375 49.285156 31.421875 49.363281 L 7.140625 50.515625 C 5.453125 50.597656 3.804688 50.003906 2.558594 48.867188 C 1.308594 47.734375 0.5625 46.148438 0.480469 44.464844 Z M 0.480469 44.464844 " clip-rule="nonzero"/></clipPath><clipPath id="779fd1bf9b"><path d="M 0.238281 0.480469 L 37.660156 0.480469 L 37.660156 14.632812 L 0.238281 14.632812 Z M 0.238281 0.480469 " clip-rule="nonzero"/></clipPath><clipPath id="80b1e29d17"><path d="M 0.785156 14.820312 L 0.179688 2.109375 L 37.21875 0.351562 L 37.820312 13.058594 Z M 0.785156 14.820312 " clip-rule="nonzero"/></clipPath><clipPath id="8f588ada50"><path d="M 0.480469 8.464844 C 0.402344 6.777344 0.996094 5.128906 2.128906 3.882812 C 3.265625 2.632812 4.851562 1.886719 6.535156 1.808594 L 30.820312 0.65625 C 32.503906 0.574219 34.152344 1.167969 35.402344 2.300781 C 36.648438 3.4375 37.394531 5.023438 37.476562 6.707031 C 37.554688 8.394531 36.960938 10.042969 35.828125 11.289062 C 34.691406 12.539062 33.109375 13.285156 31.421875 13.363281 L 7.140625 14.515625 C 5.453125 14.597656 3.804688 14.003906 2.558594 12.867188 C 1.308594 11.734375 0.5625 10.148438 0.480469 8.464844 Z M 0.480469 8.464844 " clip-rule="nonzero"/></clipPath><clipPath id="325ad31d51"><rect x="0" width="38" y="0" height="15"/></clipPath><clipPath id="2bc94c8399"><rect x="0" width="51" y="0" height="75"/></clipPath><clipPath id="34242121e3"><path d="M 38 30 L 178 30 L 178 74.980469 L 38 74.980469 Z M 38 30 " clip-rule="nonzero"/></clipPath><clipPath id="0db41535a6"><rect x="0" width="140" y="0" height="45"/></clipPath><clipPath id="f3f4edeb58"><path d="M 173 28 L 221 28 L 221 74.980469 L 173 74.980469 Z M 173 28 " clip-rule="nonzero"/></clipPath><clipPath id="359178eac5"><path d="M 0.1875 16 L 47 16 L 47 31 L 0.1875 31 Z M 0.1875 16 " clip-rule="nonzero"/></clipPath><clipPath id="c2ada846e4"><path d="M 0.921875 31.191406 L 0.199219 19.398438 L 46.40625 16.574219 L 47.128906 28.367188 Z M 0.921875 31.191406 " clip-rule="nonzero"/></clipPath><clipPath id="1a46ada63d"><path d="M 0.558594 25.296875 C 0.359375 22.039062 2.839844 19.238281 6.097656 19.039062 L 40.480469 16.9375 C 43.738281 16.738281 46.539062 19.214844 46.738281 22.472656 C 46.9375 25.726562 44.457031 28.53125 41.203125 28.730469 L 6.816406 30.832031 C 3.5625 31.03125 0.757812 28.554688 0.558594 25.296875 Z M 0.558594 25.296875 " clip-rule="nonzero"/></clipPath><clipPath id="1b4b052c84"><path d="M 0.1875 0.636719 L 46.960938 0.636719 L 46.960938 15 L 0.1875 15 Z M 0.1875 0.636719 " clip-rule="nonzero"/></clipPath><clipPath id="cf8918f7e3"><path d="M 0.921875 15.191406 L 0.199219 3.398438 L 46.40625 0.574219 L 47.128906 12.367188 Z M 0.921875 15.191406 " clip-rule="nonzero"/></clipPath><clipPath id="9c98a7d692"><path d="M 0.558594 9.296875 C 0.359375 6.039062 2.839844 3.238281 6.097656 3.039062 L 40.480469 0.9375 C 43.738281 0.738281 46.539062 3.214844 46.738281 6.472656 C 46.9375 9.726562 44.457031 12.53125 41.203125 12.730469 L 6.816406 14.832031 C 3.5625 15.03125 0.757812 12.554688 0.558594 9.296875 Z M 0.558594 9.296875 " clip-rule="nonzero"/></clipPath><clipPath id="814b9ab48e"><rect x="0" width="47" y="0" height="15"/></clipPath><clipPath id="9c3acb98d2"><path d="M 16 1 L 31 1 L 31 46.980469 L 16 46.980469 Z M 16 1 " clip-rule="nonzero"/></clipPath><clipPath id="51dc39e5ad"><path d="M 19.257812 0.796875 L 31.144531 1.609375 L 28.042969 47.011719 L 16.15625 46.199219 Z M 19.257812 0.796875 " clip-rule="nonzero"/></clipPath><clipPath id="9a18dcdbce"><path d="M 25.199219 1.203125 C 26.777344 1.3125 28.246094 2.039062 29.285156 3.230469 C 30.320312 4.421875 30.84375 5.976562 30.738281 7.550781 L 28.449219 41.039062 C 28.34375 42.613281 27.613281 44.082031 26.421875 45.121094 C 25.230469 46.160156 23.679688 46.683594 22.101562 46.574219 C 20.527344 46.464844 19.058594 45.738281 18.019531 44.546875 C 16.980469 43.355469 16.457031 41.800781 16.566406 40.226562 L 18.851562 6.738281 C 18.960938 5.164062 19.691406 3.695312 20.878906 2.65625 C 22.070312 1.617188 23.625 1.097656 25.199219 1.203125 Z M 25.199219 1.203125 " clip-rule="nonzero"/></clipPath><clipPath id="2df46d1b91"><path d="M 0.257812 0.0429688 L 14.890625 0.0429688 L 14.890625 45.859375 L 0.257812 45.859375 Z M 0.257812 0.0429688 " clip-rule="nonzero"/></clipPath><clipPath id="3e468b53ae"><path d="M 3.257812 -0.203125 L 15.144531 0.609375 L 12.042969 46.011719 L 0.15625 45.199219 Z M 3.257812 -0.203125 " clip-rule="nonzero"/></clipPath><clipPath id="feb087731a"><path d="M 9.199219 0.203125 C 10.777344 0.3125 12.246094 1.039062 13.285156 2.230469 C 14.320312 3.421875 14.84375 4.976562 14.738281 6.550781 L 12.449219 40.039062 C 12.34375 41.613281 11.613281 43.082031 10.421875 44.121094 C 9.230469 45.160156 7.679688 45.683594 6.101562 45.574219 C 4.527344 45.464844 3.058594 44.738281 2.019531 43.546875 C 0.980469 42.355469 0.457031 40.800781 0.566406 39.226562 L 2.851562 5.738281 C 2.960938 4.164062 3.691406 2.695312 4.878906 1.65625 C 6.070312 0.617188 7.625 0.0976562 9.199219 0.203125 Z M 9.199219 0.203125 " clip-rule="nonzero"/></clipPath><clipPath id="ba3ada1d17"><rect x="0" width="15" y="0" height="46"/></clipPath><clipPath id="1cc6371fd6"><rect x="0" width="48" y="0" height="47"/></clipPath></defs><g clip-path="url(#fcc13808da)"><g transform="matrix(1, 0, 0, 1, 0, -0.000000000000000847)"><g clip-path="url(#2bc94c8399)"><g clip-path="url(#58f963ec64)"><g clip-path="url(#270a7a28c1)"><g clip-path="url(#d61d94d570)"><g transform="matrix(1, 0, 0, 1, 3, 6)"><g clip-path="url(#e3fbc38717)"><g clip-path="url(#ab2a6c911f)"><g clip-path="url(#9b266d39f6)"><g clip-path="url(#fcf76cfd31)"><path fill="#0a1773" d="M 5.722656 0.453125 L 18.328125 1.503906 L 12.703125 68.957031 L 0.0976562 67.902344 Z M 5.722656 0.453125 " fill-opacity="1" fill-rule="nonzero"/></g></g></g></g></g></g></g></g><g clip-path="url(#5812afea39)"><g clip-path="url(#e550cc1a3d)"><g clip-path="url(#d36167db86)"><g transform="matrix(1, 0, 0, 1, 0, -0.000000000000000833)"><g clip-path="url(#b5dbc3b12b)"><g clip-path="url(#31786752fd)"><g clip-path="url(#aeb6aacd1a)"><g clip-path="url(#34354b45f0)"><path fill="#0a1773" d="M 0.683594 15.074219 L -0.00390625 2.777344 L 49.527344 0.015625 L 50.214844 12.316406 Z M 0.683594 15.074219 " fill-opacity="1" fill-rule="nonzero"/></g></g></g></g></g></g></g></g><g clip-path="url(#5731b0398b)"><g clip-path="url(#e48f2e3715)"><g clip-path="url(#6ca2910c11)"><g transform="matrix(1, 0, 0, 1, 0, 36)"><g clip-path="url(#325ad31d51)"><g clip-path="url(#779fd1bf9b)"><g clip-path="url(#80b1e29d17)"><g clip-path="url(#8f588ada50)"><path fill="#0a1773" d="M 0.785156 14.820312 L 0.179688 2.109375 L 37.167969 0.351562 L 37.769531 13.0625 Z M 0.785156 14.820312 " fill-opacity="1" fill-rule="nonzero"/></g></g></g></g></g></g></g></g></g></g></g><g clip-path="url(#34242121e3)"><g transform="matrix(1, 0, 0, 1, 38, 30)"><g clip-path="url(#0db41535a6)"><g fill="#0a1773" fill-opacity="1"><g transform="translate(0.391151, 41.321088)"><g><path d="M 3.5 0.328125 C 2.71875 0.328125 2.144531 0.0664062 1.78125 -0.453125 C 1.425781 -0.984375 1.316406 -1.703125 1.453125 -2.609375 L 3.828125 -17.515625 C 3.960938 -18.335938 4.269531 -18.957031 4.75 -19.375 C 5.226562 -19.789062 5.882812 -20 6.71875 -20 C 7.5 -20 8.066406 -19.742188 8.421875 -19.234375 C 8.785156 -18.722656 8.90625 -18 8.78125 -17.0625 L 6.40625 -2.171875 C 6.269531 -1.335938 5.96875 -0.710938 5.5 -0.296875 C 5.03125 0.117188 4.363281 0.328125 3.5 0.328125 Z M 7.359375 -23.703125 C 6.453125 -23.703125 5.773438 -23.921875 5.328125 -24.359375 C 4.890625 -24.804688 4.710938 -25.4375 4.796875 -26.25 C 4.898438 -27.15625 5.242188 -27.84375 5.828125 -28.3125 C 6.421875 -28.78125 7.21875 -29.015625 8.21875 -29.015625 C 9.125 -29.015625 9.804688 -28.789062 10.265625 -28.34375 C 10.722656 -27.90625 10.894531 -27.285156 10.78125 -26.484375 C 10.675781 -25.566406 10.332031 -24.875 9.75 -24.40625 C 9.175781 -23.9375 8.378906 -23.703125 7.359375 -23.703125 Z M 7.359375 -23.703125 "/></g></g></g><g fill="#0a1773" fill-opacity="1"><g transform="translate(13.188573, 41.321088)"><g><path d="M 8.859375 0.40625 C 7.378906 0.40625 6.082031 0.0546875 4.96875 -0.640625 C 3.851562 -1.335938 2.988281 -2.320312 2.375 -3.59375 C 1.757812 -4.875 1.453125 -6.375 1.453125 -8.09375 C 1.453125 -10.34375 1.847656 -12.375 2.640625 -14.1875 C 3.429688 -16 4.570312 -17.429688 6.0625 -18.484375 C 7.550781 -19.546875 9.3125 -20.078125 11.34375 -20.078125 C 12.851562 -20.078125 14.179688 -19.710938 15.328125 -18.984375 C 16.484375 -18.265625 17.289062 -17.195312 17.75 -15.78125 L 17.46875 -15.8125 L 19.125 -26.328125 C 19.25 -27.160156 19.550781 -27.765625 20.03125 -28.140625 C 20.519531 -28.515625 21.179688 -28.703125 22.015625 -28.703125 C 22.796875 -28.703125 23.363281 -28.457031 23.71875 -27.96875 C 24.082031 -27.488281 24.195312 -26.78125 24.0625 -25.84375 L 20.328125 -2.25 C 20.191406 -1.414062 19.878906 -0.773438 19.390625 -0.328125 C 18.910156 0.109375 18.253906 0.328125 17.421875 0.328125 C 16.648438 0.328125 16.09375 0.0507812 15.75 -0.5 C 15.414062 -1.050781 15.332031 -1.785156 15.5 -2.703125 L 15.859375 -4.90625 L 15.90625 -3.703125 C 15.175781 -2.441406 14.207031 -1.441406 13 -0.703125 C 11.789062 0.0351562 10.410156 0.40625 8.859375 0.40625 Z M 10.828125 -3.421875 C 12.054688 -3.421875 13.09375 -3.773438 13.9375 -4.484375 C 14.789062 -5.191406 15.441406 -6.144531 15.890625 -7.34375 C 16.347656 -8.539062 16.578125 -9.875 16.578125 -11.34375 C 16.578125 -12.925781 16.191406 -14.140625 15.421875 -14.984375 C 14.660156 -15.835938 13.613281 -16.265625 12.28125 -16.265625 C 11.070312 -16.265625 10.035156 -15.914062 9.171875 -15.21875 C 8.316406 -14.519531 7.660156 -13.570312 7.203125 -12.375 C 6.742188 -11.175781 6.515625 -9.828125 6.515625 -8.328125 C 6.515625 -6.742188 6.894531 -5.53125 7.65625 -4.6875 C 8.425781 -3.84375 9.484375 -3.421875 10.828125 -3.421875 Z M 10.828125 -3.421875 "/></g></g></g><g fill="#0a1773" fill-opacity="1"><g transform="translate(39.869262, 41.321088)"><g><path d="M 11.265625 0.40625 C 9.285156 0.40625 7.5625 0.0351562 6.09375 -0.703125 C 4.632812 -1.441406 3.5 -2.484375 2.6875 -3.828125 C 1.882812 -5.171875 1.484375 -6.738281 1.484375 -8.53125 C 1.484375 -10.726562 1.945312 -12.691406 2.875 -14.421875 C 3.800781 -16.160156 5.082031 -17.535156 6.71875 -18.546875 C 8.351562 -19.566406 10.234375 -20.078125 12.359375 -20.078125 C 13.992188 -20.078125 15.359375 -19.796875 16.453125 -19.234375 C 17.554688 -18.671875 18.429688 -17.910156 19.078125 -16.953125 C 19.722656 -16.003906 20.148438 -14.925781 20.359375 -13.71875 C 20.578125 -12.507812 20.617188 -11.273438 20.484375 -10.015625 C 20.429688 -9.453125 20.285156 -9.085938 20.046875 -8.921875 C 19.804688 -8.765625 19.46875 -8.6875 19.03125 -8.6875 L 5.515625 -8.6875 L 5.921875 -11.59375 L 17.1875 -11.59375 L 16.5 -10.984375 C 16.664062 -12.054688 16.625 -13.015625 16.375 -13.859375 C 16.132812 -14.710938 15.6875 -15.390625 15.03125 -15.890625 C 14.375 -16.398438 13.46875 -16.65625 12.3125 -16.65625 C 11.132812 -16.65625 10.140625 -16.382812 9.328125 -15.84375 C 8.523438 -15.3125 7.894531 -14.625 7.4375 -13.78125 C 6.988281 -12.9375 6.679688 -12.03125 6.515625 -11.0625 L 6.3125 -9.828125 C 6 -7.859375 6.320312 -6.296875 7.28125 -5.140625 C 8.25 -3.992188 9.726562 -3.421875 11.71875 -3.421875 C 12.519531 -3.421875 13.347656 -3.503906 14.203125 -3.671875 C 15.066406 -3.847656 15.847656 -4.140625 16.546875 -4.546875 C 17.054688 -4.835938 17.503906 -4.960938 17.890625 -4.921875 C 18.273438 -4.890625 18.582031 -4.742188 18.8125 -4.484375 C 19.039062 -4.234375 19.179688 -3.925781 19.234375 -3.5625 C 19.285156 -3.195312 19.222656 -2.816406 19.046875 -2.421875 C 18.878906 -2.035156 18.582031 -1.695312 18.15625 -1.40625 C 17.21875 -0.789062 16.101562 -0.332031 14.8125 -0.03125 C 13.519531 0.257812 12.335938 0.40625 11.265625 0.40625 Z M 11.265625 0.40625 "/></g></g></g><g fill="#0a1773" fill-opacity="1"><g transform="translate(64.215946, 41.321088)"><g><path d="M 7.921875 0.40625 C 5.703125 0.40625 4.09375 -0.226562 3.09375 -1.5 C 2.101562 -2.78125 1.796875 -4.640625 2.171875 -7.078125 L 5.234375 -26.203125 C 5.367188 -27.035156 5.675781 -27.660156 6.15625 -28.078125 C 6.632812 -28.492188 7.289062 -28.703125 8.125 -28.703125 C 8.90625 -28.703125 9.476562 -28.445312 9.84375 -27.9375 C 10.207031 -27.425781 10.320312 -26.703125 10.1875 -25.765625 L 7.203125 -7.125 C 7.015625 -5.945312 7.113281 -5.082031 7.5 -4.53125 C 7.894531 -3.976562 8.535156 -3.703125 9.421875 -3.703125 C 9.710938 -3.703125 9.953125 -3.722656 10.140625 -3.765625 C 10.328125 -3.804688 10.503906 -3.828125 10.671875 -3.828125 C 10.929688 -3.828125 11.140625 -3.734375 11.296875 -3.546875 C 11.460938 -3.359375 11.546875 -2.992188 11.546875 -2.453125 C 11.546875 -1.671875 11.382812 -1.070312 11.0625 -0.65625 C 10.738281 -0.25 10.351562 0.0195312 9.90625 0.15625 C 9.664062 0.238281 9.351562 0.300781 8.96875 0.34375 C 8.59375 0.382812 8.242188 0.40625 7.921875 0.40625 Z M 7.921875 0.40625 "/></g></g></g><g fill="#0a1773" fill-opacity="1"><g transform="translate(79.588814, 41.321088)"><g><path d="M 3.5 0.328125 C 2.71875 0.328125 2.144531 0.0664062 1.78125 -0.453125 C 1.425781 -0.984375 1.316406 -1.703125 1.453125 -2.609375 L 3.828125 -17.515625 C 3.960938 -18.335938 4.269531 -18.957031 4.75 -19.375 C 5.226562 -19.789062 5.882812 -20 6.71875 -20 C 7.5 -20 8.066406 -19.742188 8.421875 -19.234375 C 8.785156 -18.722656 8.90625 -18 8.78125 -17.0625 L 6.40625 -2.171875 C 6.269531 -1.335938 5.96875 -0.710938 5.5 -0.296875 C 5.03125 0.117188 4.363281 0.328125 3.5 0.328125 Z M 7.359375 -23.703125 C 6.453125 -23.703125 5.773438 -23.921875 5.328125 -24.359375 C 4.890625 -24.804688 4.710938 -25.4375 4.796875 -26.25 C 4.898438 -27.15625 5.242188 -27.84375 5.828125 -28.3125 C 6.421875 -28.78125 7.21875 -29.015625 8.21875 -29.015625 C 9.125 -29.015625 9.804688 -28.789062 10.265625 -28.34375 C 10.722656 -27.90625 10.894531 -27.285156 10.78125 -26.484375 C 10.675781 -25.566406 10.332031 -24.875 9.75 -24.40625 C 9.175781 -23.9375 8.378906 -23.703125 7.359375 -23.703125 Z M 7.359375 -23.703125 "/></g></g></g><g fill="#0a1773" fill-opacity="1"><g transform="translate(92.386236, 41.321088)"><g><path d="M 2.78125 0 C 2.21875 0 1.757812 -0.113281 1.40625 -0.34375 C 1.0625 -0.570312 0.820312 -0.875 0.6875 -1.25 C 0.550781 -1.625 0.539062 -2.03125 0.65625 -2.46875 C 0.78125 -2.914062 1.046875 -3.351562 1.453125 -3.78125 L 13.890625 -17.109375 L 14.046875 -15.90625 L 4.90625 -15.90625 C 4.257812 -15.90625 3.757812 -16.046875 3.40625 -16.328125 C 3.0625 -16.609375 2.890625 -16.988281 2.890625 -17.46875 C 2.890625 -18.164062 3.097656 -18.707031 3.515625 -19.09375 C 3.929688 -19.488281 4.476562 -19.6875 5.15625 -19.6875 L 16.78125 -19.6875 C 17.34375 -19.6875 17.804688 -19.570312 18.171875 -19.34375 C 18.535156 -19.113281 18.773438 -18.8125 18.890625 -18.4375 C 19.015625 -18.0625 19.003906 -17.640625 18.859375 -17.171875 C 18.710938 -16.703125 18.421875 -16.238281 17.984375 -15.78125 L 5.515625 -2.453125 L 5.359375 -3.78125 L 15.09375 -3.78125 C 16.4375 -3.78125 17.109375 -3.257812 17.109375 -2.21875 C 17.109375 -1.539062 16.90625 -1 16.5 -0.59375 C 16.101562 -0.195312 15.554688 0 14.859375 0 Z M 2.78125 0 "/></g></g></g><g fill="#0a1773" fill-opacity="1"><g transform="translate(113.795281, 41.321088)"><g><path d="M 7.765625 0.40625 C 6.554688 0.40625 5.457031 0.128906 4.46875 -0.421875 C 3.476562 -0.972656 2.679688 -1.703125 2.078125 -2.609375 C 1.472656 -3.523438 1.171875 -4.546875 1.171875 -5.671875 C 1.171875 -7.066406 1.554688 -8.203125 2.328125 -9.078125 C 3.109375 -9.953125 4.316406 -10.601562 5.953125 -11.03125 C 7.585938 -11.457031 9.679688 -11.671875 12.234375 -11.671875 L 15.453125 -11.671875 L 15.015625 -8.78125 L 12.484375 -8.78125 C 10.898438 -8.78125 9.632812 -8.695312 8.6875 -8.53125 C 7.75 -8.375 7.078125 -8.09375 6.671875 -7.6875 C 6.273438 -7.28125 6.078125 -6.71875 6.078125 -6 C 6.078125 -5.0625 6.390625 -4.335938 7.015625 -3.828125 C 7.648438 -3.316406 8.425781 -3.0625 9.34375 -3.0625 C 10.195312 -3.0625 10.972656 -3.238281 11.671875 -3.59375 C 12.367188 -3.957031 12.957031 -4.484375 13.4375 -5.171875 C 13.925781 -5.859375 14.238281 -6.671875 14.375 -7.609375 L 15.140625 -12.390625 C 15.347656 -13.648438 15.148438 -14.613281 14.546875 -15.28125 C 13.941406 -15.957031 12.890625 -16.296875 11.390625 -16.296875 C 10.503906 -16.296875 9.644531 -16.207031 8.8125 -16.03125 C 7.976562 -15.863281 7.117188 -15.578125 6.234375 -15.171875 C 5.722656 -14.960938 5.265625 -14.894531 4.859375 -14.96875 C 4.460938 -15.050781 4.132812 -15.234375 3.875 -15.515625 C 3.625 -15.796875 3.484375 -16.128906 3.453125 -16.515625 C 3.429688 -16.910156 3.546875 -17.296875 3.796875 -17.671875 C 4.054688 -18.046875 4.484375 -18.367188 5.078125 -18.640625 C 6.203125 -19.148438 7.375 -19.515625 8.59375 -19.734375 C 9.8125 -19.960938 10.957031 -20.078125 12.03125 -20.078125 C 14.15625 -20.078125 15.820312 -19.6875 17.03125 -18.90625 C 18.238281 -18.132812 19.054688 -17.078125 19.484375 -15.734375 C 19.910156 -14.390625 19.988281 -12.863281 19.71875 -11.15625 L 18.3125 -2.171875 C 18.207031 -1.335938 17.921875 -0.710938 17.453125 -0.296875 C 16.984375 0.117188 16.359375 0.328125 15.578125 0.328125 C 14.847656 0.328125 14.300781 0.09375 13.9375 -0.375 C 13.582031 -0.851562 13.472656 -1.546875 13.609375 -2.453125 L 14 -4.984375 L 14.28125 -4.1875 C 13.90625 -3.132812 13.375 -2.265625 12.6875 -1.578125 C 12.007812 -0.898438 11.25 -0.398438 10.40625 -0.078125 C 9.5625 0.242188 8.679688 0.40625 7.765625 0.40625 Z M 7.765625 0.40625 "/></g></g></g></g></g></g><g clip-path="url(#f3f4edeb58)"><g transform="matrix(1, 0, 0, 1, 173, 28)"><g clip-path="url(#1cc6371fd6)"><g clip-path="url(#359178eac5)"><g clip-path="url(#c2ada846e4)"><g clip-path="url(#1a46ada63d)"><g transform="matrix(1, 0, 0, 1, 0.000000000000028422, 16)"><g clip-path="url(#814b9ab48e)"><g clip-path="url(#1b4b052c84)"><g clip-path="url(#cf8918f7e3)"><g clip-path="url(#9c98a7d692)"><path fill="#03d56a" d="M 0.921875 15.191406 L 0.199219 3.398438 L 46.359375 0.574219 L 47.082031 12.371094 Z M 0.921875 15.191406 " fill-opacity="1" fill-rule="nonzero"/></g></g></g></g></g></g></g></g><g clip-path="url(#9c3acb98d2)"><g clip-path="url(#51dc39e5ad)"><g clip-path="url(#9a18dcdbce)"><g transform="matrix(1, 0, 0, 1, 16, 1)"><g clip-path="url(#ba3ada1d17)"><g clip-path="url(#2df46d1b91)"><g clip-path="url(#3e468b53ae)"><g clip-path="url(#feb087731a)"><path fill="#03d56a" d="M 3.257812 -0.203125 L 15.144531 0.609375 L 12.046875 45.964844 L 0.160156 45.152344 Z M 3.257812 -0.203125 " fill-opacity="1" fill-rule="nonzero"/></g></g></g></g></g></g></g></g></g></g></g></svg>